<svg xmlns="http://www.w3.org/2000/svg" xmlns:xlink="http://www.w3.org/1999/xlink" width="500" zoomAndPan="magnify" viewBox="0 0 375 374.999991" height="500" preserveAspectRatio="xMidYMid meet" version="1.0"><defs><g/></defs><rect x="-37.5" width="450" fill="#ffffff" y="-37.499999" height="449.999989" fill-opacity="1"/><rect x="-37.5" width="450" fill="#000000" y="-37.499999" height="449.999989" fill-opacity="1"/><g fill="#ffffff" fill-opacity="1"><g transform="translate(53.377208, 200.317028)"><g><path d="M 53.453125 -6.03125 C 47.441406 -1.488281 40.242188 0.78125 31.859375 0.78125 C 23.472656 0.78125 16.71875 -1.90625 11.59375 -7.28125 C 6.476562 -12.664062 3.921875 -19.378906 3.921875 -27.421875 C 3.921875 -35.472656 6.390625 -42.175781 11.328125 -47.53125 C 16.265625 -52.882812 22.910156 -55.5625 31.265625 -55.5625 C 35.140625 -55.5625 39.007812 -55.039062 42.875 -54 C 46.738281 -52.957031 49.664062 -51.882812 51.65625 -50.78125 L 51.65625 -40.75 L 50.78125 -40.90625 C 49.476562 -45.613281 47.21875 -48.929688 44 -50.859375 C 40.789062 -52.796875 36.546875 -53.765625 31.265625 -53.765625 C 24.578125 -53.765625 19.484375 -51.347656 15.984375 -46.515625 C 12.484375 -41.679688 10.734375 -35.367188 10.734375 -27.578125 C 10.734375 -19.796875 12.585938 -13.5 16.296875 -8.6875 C 20.003906 -3.882812 25.207031 -1.484375 31.90625 -1.484375 C 36.707031 -1.484375 40.710938 -2.070312 43.921875 -3.25 C 47.140625 -4.425781 50.316406 -6.140625 53.453125 -8.390625 Z M 53.453125 -6.03125 "/></g></g></g><g fill="#ffffff" fill-opacity="1"><g transform="translate(103.136735, 200.317028)"><g><path d="M 54.46875 -37.15625 L 54.46875 -17.71875 C 54.46875 -9.875 54.859375 -5.171875 55.640625 -3.609375 C 55.898438 -2.984375 56.34375 -2.429688 56.96875 -1.953125 C 57.601562 -1.484375 58.296875 -1.195312 59.046875 -1.09375 C 59.804688 -0.988281 60.816406 -0.9375 62.078125 -0.9375 L 62.234375 0 L 41.0625 0 L 41.21875 -0.9375 C 42.53125 -0.9375 43.5625 -0.988281 44.3125 -1.09375 C 45.070312 -1.195312 45.78125 -1.484375 46.4375 -1.953125 C 47.09375 -2.429688 47.5625 -2.96875 47.84375 -3.5625 C 48.132812 -4.164062 48.382812 -5.171875 48.59375 -6.578125 C 48.851562 -8.410156 48.984375 -12.125 48.984375 -17.71875 L 48.984375 -26.328125 L 17.25 -26.328125 L 17.25 -17.71875 C 17.25 -12.125 17.414062 -8.304688 17.75 -6.265625 C 18.09375 -4.234375 18.578125 -2.953125 19.203125 -2.421875 C 20.398438 -1.429688 22.304688 -0.9375 24.921875 -0.9375 L 25.078125 0 L 3.921875 0 L 4.078125 -0.9375 C 5.378906 -0.9375 6.394531 -0.988281 7.125 -1.09375 C 7.863281 -1.195312 8.554688 -1.484375 9.203125 -1.953125 C 9.859375 -2.429688 10.328125 -2.96875 10.609375 -3.5625 C 10.898438 -4.164062 11.148438 -5.171875 11.359375 -6.578125 C 11.617188 -8.410156 11.75 -12.125 11.75 -17.71875 L 11.75 -37.15625 C 11.75 -42.582031 11.59375 -46.367188 11.28125 -48.515625 C 10.96875 -50.660156 10.5 -51.992188 9.875 -52.515625 C 8.625 -53.503906 6.691406 -54 4.078125 -54 L 3.921875 -54.859375 L 25.078125 -54.859375 L 24.921875 -54 C 22.304688 -54 20.398438 -53.503906 19.203125 -52.515625 C 17.898438 -51.410156 17.25 -46.289062 17.25 -37.15625 L 17.25 -28.375 L 48.984375 -28.375 L 48.984375 -37.15625 C 48.984375 -44.9375 48.59375 -49.660156 47.8125 -51.328125 C 47.550781 -51.960938 47.09375 -52.515625 46.4375 -52.984375 C 45.78125 -53.453125 45.070312 -53.738281 44.3125 -53.84375 C 43.5625 -53.945312 42.53125 -54 41.21875 -54 L 41.0625 -54.859375 L 62.234375 -54.859375 L 62.078125 -54 C 60.816406 -54 59.804688 -53.945312 59.046875 -53.84375 C 58.296875 -53.738281 57.601562 -53.453125 56.96875 -52.984375 C 56.34375 -52.515625 55.882812 -51.960938 55.59375 -51.328125 C 55.3125 -50.703125 55.066406 -49.6875 54.859375 -48.28125 C 54.597656 -45.976562 54.46875 -42.269531 54.46875 -37.15625 Z M 54.46875 -37.15625 "/></g></g></g><g fill="#ffffff" fill-opacity="1"><g transform="translate(163.240177, 200.317028)"><g><path d="M 43.421875 0 L 3.921875 0 L 4.078125 -0.9375 C 6.691406 -0.9375 8.597656 -1.429688 9.796875 -2.421875 C 11.097656 -3.523438 11.75 -8.625 11.75 -17.71875 L 11.75 -37.15625 C 11.75 -42.738281 11.578125 -46.5625 11.234375 -48.625 C 10.898438 -50.695312 10.421875 -51.992188 9.796875 -52.515625 C 8.597656 -53.503906 6.691406 -54 4.078125 -54 L 3.921875 -54.859375 L 40.515625 -54.859375 L 40.515625 -43.578125 L 39.578125 -43.734375 C 39.578125 -47.234375 37.734375 -49.660156 34.046875 -51.015625 C 30.367188 -52.378906 24.742188 -53.0625 17.171875 -53.0625 L 17.171875 -28.375 C 22.179688 -28.375 25.78125 -28.632812 27.96875 -29.15625 C 30.164062 -29.675781 31.578125 -30.472656 32.203125 -31.546875 C 32.835938 -32.617188 33.15625 -34.410156 33.15625 -36.921875 L 34.015625 -37.078125 L 34.015625 -18.03125 L 33.15625 -18.1875 C 33.15625 -20.738281 32.835938 -22.535156 32.203125 -23.578125 C 31.578125 -24.628906 30.164062 -25.398438 27.96875 -25.890625 C 25.78125 -26.390625 22.179688 -26.640625 17.171875 -26.640625 L 17.171875 -16.53125 C 17.171875 -11 17.363281 -7.316406 17.75 -5.484375 C 18.144531 -3.660156 19.019531 -2.429688 20.375 -1.796875 C 35.113281 -1.796875 42.484375 -4.929688 42.484375 -11.203125 L 43.421875 -11.359375 Z M 29.15625 -67.09375 C 30.195312 -67.769531 31.125 -68.109375 31.9375 -68.109375 C 32.75 -68.109375 33.453125 -67.859375 34.046875 -67.359375 C 34.648438 -66.867188 34.953125 -66.203125 34.953125 -65.359375 C 34.953125 -63.640625 33.828125 -62.441406 31.578125 -61.765625 L 17.25 -57.375 L 16.375 -59.328125 Z M 29.15625 -67.09375 "/></g></g></g><g fill="#ffffff" fill-opacity="1"><g transform="translate(205.476866, 200.317028)"><g><path d="M 43.96875 0 C 42.664062 0 41.375 -0.664062 40.09375 -2 C 38.8125 -3.332031 37.660156 -4.988281 36.640625 -6.96875 C 35.617188 -8.957031 34.425781 -11.113281 33.0625 -13.4375 C 31.707031 -15.757812 30.351562 -17.941406 29 -19.984375 C 27.644531 -22.023438 25.921875 -23.75 23.828125 -25.15625 C 21.734375 -26.570312 19.515625 -27.332031 17.171875 -27.4375 L 17.171875 -17.71875 C 17.171875 -12.070312 17.335938 -8.242188 17.671875 -6.234375 C 18.015625 -4.222656 18.5 -2.953125 19.125 -2.421875 C 20.375 -1.429688 22.304688 -0.9375 24.921875 -0.9375 L 25.078125 0 L 4.078125 0 L 4.234375 -0.9375 C 6.796875 -0.9375 8.675781 -1.40625 9.875 -2.34375 C 10.863281 -3.132812 11.4375 -5.695312 11.59375 -10.03125 C 11.695312 -11.757812 11.75 -14.320312 11.75 -17.71875 L 11.75 -37.546875 C 11.75 -43.335938 11.59375 -47.175781 11.28125 -49.0625 C 10.96875 -50.945312 10.5 -52.125 9.875 -52.59375 C 8.675781 -53.476562 6.796875 -53.921875 4.234375 -53.921875 L 4.078125 -54.859375 L 22.265625 -54.859375 C 35.429688 -54.859375 42.015625 -50.414062 42.015625 -41.53125 C 42.015625 -37.71875 40.664062 -34.519531 37.96875 -31.9375 C 35.28125 -29.351562 32.03125 -27.851562 28.21875 -27.4375 C 32.03125 -25.1875 35.554688 -21.054688 38.796875 -15.046875 C 40.046875 -12.691406 41.378906 -10.445312 42.796875 -8.3125 C 45.878906 -3.394531 49.847656 -0.9375 54.703125 -0.9375 L 54.859375 0 Z M 17.171875 -53.0625 L 17.171875 -29 L 22.109375 -29 C 26.078125 -29 29.363281 -30.015625 31.96875 -32.046875 C 34.582031 -34.085938 35.890625 -37.117188 35.890625 -41.140625 C 35.890625 -49.085938 31.347656 -53.0625 22.265625 -53.0625 Z M 17.171875 -53.0625 "/></g></g></g><g fill="#ffffff" fill-opacity="1"><g transform="translate(250.377898, 200.317028)"><g><path d="M 17.25 -37.15625 L 17.25 -17.71875 C 17.25 -12.125 17.414062 -8.304688 17.75 -6.265625 C 18.09375 -4.234375 18.578125 -2.953125 19.203125 -2.421875 C 20.398438 -1.429688 22.304688 -0.9375 24.921875 -0.9375 L 25.078125 0 L 3.921875 0 L 4.078125 -0.9375 C 5.378906 -0.9375 6.394531 -0.988281 7.125 -1.09375 C 7.863281 -1.195312 8.554688 -1.484375 9.203125 -1.953125 C 9.859375 -2.429688 10.328125 -2.96875 10.609375 -3.5625 C 10.898438 -4.164062 11.148438 -5.171875 11.359375 -6.578125 C 11.617188 -8.410156 11.75 -12.125 11.75 -17.71875 L 11.75 -37.15625 C 11.75 -42.582031 11.59375 -46.367188 11.28125 -48.515625 C 10.96875 -50.660156 10.5 -51.992188 9.875 -52.515625 C 8.625 -53.503906 6.691406 -54 4.078125 -54 L 3.921875 -54.859375 L 25.078125 -54.859375 L 24.921875 -54 C 22.304688 -54 20.398438 -53.503906 19.203125 -52.515625 C 17.898438 -51.410156 17.25 -46.289062 17.25 -37.15625 Z M 17.25 -37.15625 "/></g></g></g><g fill="#ffffff" fill-opacity="1"><g transform="translate(273.337316, 200.317028)"><g><path d="M 43.421875 0 L 3.921875 0 L 4.078125 -0.9375 C 6.691406 -0.9375 8.597656 -1.429688 9.796875 -2.421875 C 11.097656 -3.523438 11.75 -8.625 11.75 -17.71875 L 11.75 -37.15625 C 11.75 -42.738281 11.578125 -46.5625 11.234375 -48.625 C 10.898438 -50.695312 10.421875 -51.992188 9.796875 -52.515625 C 8.597656 -53.503906 6.691406 -54 4.078125 -54 L 3.921875 -54.859375 L 40.515625 -54.859375 L 40.515625 -43.578125 L 39.578125 -43.734375 C 39.578125 -47.234375 37.734375 -49.660156 34.046875 -51.015625 C 30.367188 -52.378906 24.742188 -53.0625 17.171875 -53.0625 L 17.171875 -28.375 C 22.179688 -28.375 25.78125 -28.632812 27.96875 -29.15625 C 30.164062 -29.675781 31.578125 -30.472656 32.203125 -31.546875 C 32.835938 -32.617188 33.15625 -34.410156 33.15625 -36.921875 L 34.015625 -37.078125 L 34.015625 -18.03125 L 33.15625 -18.1875 C 33.15625 -20.738281 32.835938 -22.535156 32.203125 -23.578125 C 31.578125 -24.628906 30.164062 -25.398438 27.96875 -25.890625 C 25.78125 -26.390625 22.179688 -26.640625 17.171875 -26.640625 L 17.171875 -16.53125 C 17.171875 -11 17.363281 -7.316406 17.75 -5.484375 C 18.144531 -3.660156 19.019531 -2.429688 20.375 -1.796875 C 35.113281 -1.796875 42.484375 -4.929688 42.484375 -11.203125 L 43.421875 -11.359375 Z M 43.421875 0 "/></g></g></g><g fill="#ffffff" fill-opacity="1"><g transform="translate(153.278857, 231.896737)"><g><path d="M 17.359375 -0.46875 C 18.347656 -0.46875 19.046875 -0.546875 19.453125 -0.703125 C 19.859375 -0.859375 20.0625 -1.265625 20.0625 -1.921875 C 20.0625 -2.578125 19.367188 -4.796875 17.984375 -8.578125 L 6.03125 -8.578125 C 4.90625 -5.265625 4.34375 -3.179688 4.34375 -2.328125 C 4.34375 -1.484375 4.554688 -0.960938 4.984375 -0.765625 C 5.421875 -0.566406 6.203125 -0.46875 7.328125 -0.46875 L 7.40625 0 L -1.40625 0 L -1.328125 -0.46875 C -0.578125 -0.46875 0.0078125 -0.53125 0.4375 -0.65625 C 0.875 -0.789062 1.347656 -1.140625 1.859375 -1.703125 C 2.367188 -2.265625 2.859375 -3.082031 3.328125 -4.15625 C 3.796875 -5.226562 4.359375 -6.726562 5.015625 -8.65625 L 8.5 -18.734375 C 9.726562 -22.285156 10.34375 -24.4375 10.34375 -25.1875 C 10.34375 -25.945312 10.160156 -26.4375 9.796875 -26.65625 C 9.429688 -26.882812 8.726562 -27 7.6875 -27 L 7.609375 -27.4375 L 14.0625 -27.4375 L 21 -8.65625 C 22.175781 -5.550781 22.96875 -3.578125 23.375 -2.734375 C 23.78125 -1.898438 24.164062 -1.367188 24.53125 -1.140625 C 25.1875 -0.691406 26.007812 -0.46875 27 -0.46875 L 27.078125 0 L 17.28125 0 Z M 11.875 -25.3125 L 6.34375 -9.515625 L 17.671875 -9.515625 Z M 11.875 -25.3125 "/></g></g></g><g fill="#ffffff" fill-opacity="1"><g transform="translate(207.196814, 231.896737)"><g><path d="M 8.625 -18.578125 L 8.625 -8.859375 C 8.625 -6.054688 8.707031 -4.144531 8.875 -3.125 C 9.039062 -2.113281 9.28125 -1.476562 9.59375 -1.21875 C 10.195312 -0.71875 11.15625 -0.46875 12.46875 -0.46875 L 12.546875 0 L 1.953125 0 L 2.03125 -0.46875 C 2.6875 -0.46875 3.195312 -0.492188 3.5625 -0.546875 C 3.925781 -0.597656 4.269531 -0.738281 4.59375 -0.96875 C 4.925781 -1.207031 5.164062 -1.476562 5.3125 -1.78125 C 5.457031 -2.082031 5.582031 -2.585938 5.6875 -3.296875 C 5.8125 -4.203125 5.875 -6.054688 5.875 -8.859375 L 5.875 -18.578125 C 5.875 -21.296875 5.796875 -23.1875 5.640625 -24.25 C 5.484375 -25.320312 5.25 -25.988281 4.9375 -26.25 C 4.3125 -26.75 3.34375 -27 2.03125 -27 L 1.953125 -27.4375 L 12.546875 -27.4375 L 12.46875 -27 C 11.15625 -27 10.195312 -26.75 9.59375 -26.25 C 8.945312 -25.707031 8.625 -23.148438 8.625 -18.578125 Z M 8.625 -18.578125 "/></g></g></g><path stroke-linecap="butt" transform="matrix(0.75, 0.000000000000000389, -0.000000000000000389, 0.75, 55.49456, 219.441197)" fill="none" stroke-linejoin="miter" d="M 0.00204493 2.500279 L 109.533302 2.500279 " stroke="#ffffff" stroke-width="5" stroke-opacity="1" stroke-miterlimit="4"/><path stroke-linecap="butt" transform="matrix(0.75, -0.000000000000000372, 0.000000000000000372, 0.75, 237.354481, 219.441197)" fill="none" stroke-linejoin="miter" d="M 0.00131712 2.500279 L 109.532574 2.500279 " stroke="#ffffff" stroke-width="5" stroke-opacity="1" stroke-miterlimit="4"/></svg>